PathFileType	4	(X/Y/Z)	walk-thru1-3-TP.trc
DataRate	CameraRate	NumFrames	NumMarkers	Units	OrigDataRate	OrigDataStartFrame	OrigNumFrames
120.00	120.00	       4	60	mm	120.00	199	       528
Frame#	Time	Top.Head			Front.Head			Rear.Head			Jaw			C7			R.Clavicle			L.Clavicle			R.Shoulder			L.Shoulder			R.Scapula			L.Scapula			R.Scap.Inf			R.Biceps.Lateral			R.Elbow			R.Elbow.Medial			R.Forearm			R.Ulna			R.Radius			R.Wrist			R.Thumb.M1			R.Thumb.M2			R.Thumb.M3			R.Finger3.M1			R.Finger3.M2			R.Finger3.M3			L.Biceps.Lateral			L.Elbow			L.Elbow.Medial			L.Forearm			L.Ulna			L.Radius			L.Wrist			L.Thumb.M1			L.Thumb.M2			L.Thumb.M3			L.Finger3.M1			L.Finger3.M2			L.Finger3.M3			V.Sacral			R.ASIS			L.ASIS			R.Thigh			R.Thigh.Front			R.Knee			R.Knee.Medial			R.Shank			R.Ankle			R.Ankle.Medial			R.Heel			R.Toe			R.MedFoot			L.Thigh			L.Knee			L.Knee.Medial			L.Shank			L.Ankle			L.Ankle.Medial			L.Heel			L.Toe			L.MedFoot			V_mid_ASIS			V_R_Knee_JC			V_L_Knee_JC			V_R_Elbow_JC			V_L_Elbow_JC			V_R_Ankle_JC			V_L_Ankle_JC			V_R_Wrist_JC			V_L_Wrist_JC			V_R_ScaTrpz_1stMC_JC			V_R_1stMC_1stPP_JC			V_R_1stPP_1stDP_JC			V_R_LunCap_3rdMC_JC			V_R_3rdMC_3rdPP_JC			V_R_3rdPP_3rdMP_JC			V_R_3rdMP_3rdDP_JC			V_L_ScaTrpz_1stMC_JC			V_L_1stMC_1stPP_JC			V_L_1stPP_1stDP_JC			V_L_LunCap_3rdMC_JC			V_L_3rdMC_3rdPP_JC			V_L_3rdPP_3rdMP_JC			V_L_3rdMP_3rdPP_JC			V_ROOT_JC			V_R_Hip_JC			V_L_Hip_JC			V_R_GlenHum_JC			V_L_GlenHum_JC			V_ForeHead_Ctr			V_Vertex			V_Sagit_Lambdoid_Suture			V_R_FrontoTemp			V_L_FrontoTemporal			V_R_ParietalOccip			V_L_ParietalOcciptal			V_R_Temporal			V_L_Temporal			V_mid_FrontRearHead			V_mid_RLGlenHumCtrs			V_C7_vert			V_C1_vert			V_Mid_Hip			
		X1	Y1	Z1	X2	Y2	Z2	X3	Y3	Z3	X4	Y4	Z4	X5	Y5	Z5	X6	Y6	Z6	X7	Y7	Z7	X8	Y8	Z8	X9	Y9	Z9	X10	Y10	Z10	X11	Y11	Z11	X12	Y12	Z12	X13	Y13	Z13	X14	Y14	Z14	X15	Y15	Z15	X16	Y16	Z16	X17	Y17	Z17	X18	Y18	Z18	X19	Y19	Z19	X20	Y20	Z20	X21	Y21	Z21	X22	Y22	Z22	X23	Y23	Z23	X24	Y24	Z24	X25	Y25	Z25	X26	Y26	Z26	X27	Y27	Z27	X28	Y28	Z28	X29	Y29	Z29	X30	Y30	Z30	X31	Y31	Z31	X32	Y32	Z32	X33	Y33	Z33	X34	Y34	Z34	X35	Y35	Z35	X36	Y36	Z36	X37	Y37	Z37	X38	Y38	Z38	X39	Y39	Z39	X40	Y40	Z40	X41	Y41	Z41	X42	Y42	Z42	X43	Y43	Z43	X44	Y44	Z44	X45	Y45	Z45	X46	Y46	Z46	X47	Y47	Z47	X48	Y48	Z48	X49	Y49	Z49	X50	Y50	Z50	X51	Y51	Z51	X52	Y52	Z52	X53	Y53	Z53	X54	Y54	Z54	X55	Y55	Z55	X56	Y56	Z56	X57	Y57	Z57	X58	Y58	Z58	X59	Y59	Z59	X60	Y60	Z60	

199	1.650	648.60968	-51.65646	1562.79553	548.92377	-46.33247	1458.41431	760.97473	-52.67984	1484.12488	583.49762	-30.40778	1319.19592	781.14008	-37.17764	1375.06396	710.75641	81.03412	1284.64404	679.83044	-133.70195	1288.41895	766.93738	151.95998	1282.56116	722.60461	-230.35161	1289.49402	838.35492	45.21253	1301.65344	826.17023	-136.75189	1298.79614	886.77368	25.02556	1221.37793	769.69208	207.27805	1142.14722	824.80200	223.66713	987.40466	846.43164	149.41792	973.90161	760.47650	227.25194	901.70990	806.49750	252.77979	824.67554	746.42108	215.35735	764.03326	759.60773	256.51733	734.11102	731.96899	221.42496	709.52258	724.08264	207.58614	672.53088	724.50830	200.35948	631.01196	755.68146	273.88266	656.58020	764.99744	254.17371	606.87848	783.20673	231.43980	577.83228	729.03973	-290.81854	1140.49829	771.94696	-302.84500	995.28021	802.60016	-228.10182	988.89484	686.18958	-277.30328	935.91272	691.00146	-309.36459	842.57294	638.87988	-249.69594	806.09857	628.09369	-296.50626	782.74115	605.47681	-252.86404	773.21655	590.34351	-234.36659	734.52930	582.62878	-228.09581	684.26276	587.33258	-303.47821	703.99603	580.88470	-288.16568	665.36121	587.01782	-252.14799	633.46271	903.76361	-27.69217	910.45386	709.36884	119.50854	968.62738	723.01056	-198.30858	953.25391	634.79230	166.08481	596.39398	533.39172	98.45948	528.31464	572.97778	136.44791	462.91678	558.75623	22.18218	463.24405	590.58057	85.25149	292.35983	693.43048	88.86915	89.63239	659.58105	1.44965	106.54840	742.75995	21.13538	66.68437	557.73779	84.23724	53.57960	596.32031	36.95527	81.79651	748.85889	-204.21788	575.74377	742.38074	-167.18088	439.09955	729.81744	-47.32183	426.72537	760.68085	-102.44366	246.03122	846.98633	-116.44878	62.95611	836.75818	-25.41457	84.37674	908.72571	-70.55531	42.41550	702.10626	-76.12867	38.30734	760.93140	-45.81670	62.04818																																																																																																																															
200	1.658	642.43939	-54.39730	1561.44495	544.74750	-44.46428	1458.02820	756.43762	-52.58392	1483.64929	579.42133	-27.97835	1319.08850	776.71686	-36.77226	1373.97144	706.60822	80.97790	1283.92065	675.23145	-133.46318	1287.88513	763.29187	151.90352	1282.28162	717.72681	-230.17598	1288.66711	834.45459	45.16066	1301.31433	821.55255	-135.84268	1297.53552	882.75989	25.71018	1220.11694	765.98511	207.65187	1142.15308	821.13660	224.01582	987.22156	842.70026	150.30153	974.27509	758.09180	228.60118	901.72327	803.42969	252.44394	823.80945	744.38593	216.05557	763.55896	757.46582	256.65079	733.94244	728.23645	222.08093	708.63458	721.95886	208.62840	671.18158	722.31689	199.31985	630.55579	754.17963	274.67007	656.29553	762.12195	253.78072	606.30457	779.28308	230.66328	577.72943	725.65680	-290.49103	1140.29285	768.47485	-301.97415	994.99194	798.92523	-228.03073	989.05707	684.13062	-276.50281	935.19519	686.64063	-309.68594	842.29761	635.07843	-249.45053	805.70148	624.76379	-296.20407	782.17926	601.32379	-253.40814	772.82623	585.74670	-235.14464	734.35144	579.61304	-227.96158	682.82568	583.66254	-303.79703	703.25677	577.23254	-288.32108	664.48907	582.58405	-252.66714	633.62354	899.43555	-27.33611	910.79254	704.65192	120.73312	968.43488	716.24231	-197.58861	953.76550	630.19318	165.62337	595.64850	528.95026	98.28680	528.34717	568.20673	135.28662	462.69534	553.26434	20.59523	463.00540	580.47711	84.95059	292.15225	675.65247	88.28030	85.89577	644.63611	2.08872	102.98802	726.91785	23.35611	62.40817	540.31830	84.48555	53.90408	579.69324	35.42687	80.61283	747.29742	-202.88266	575.52759	741.46497	-166.60336	438.74240	729.50916	-46.95889	426.39124	760.34949	-102.28873	246.01541	847.03497	-116.40381	63.01170	835.90521	-26.27400	83.57867	908.99060	-69.68998	42.28553	702.53833	-76.32430	38.31592	761.00012	-45.83315	62.09393																																																																																																																															
201	1.667	638.10388	-53.23784	1560.60095	540.85822	-44.13274	1457.99719	752.24634	-52.56874	1483.49268	574.78723	-28.29956	1318.63989	772.81030	-37.49477	1373.45911	701.79694	80.54639	1282.88599	671.30457	-132.16615	1287.89294	759.12018	152.87373	1281.46924	713.96088	-229.96454	1287.86670	829.88934	45.68650	1300.62976	817.12134	-136.50598	1297.48816	878.56787	25.57037	1220.14221	762.66718	207.17024	1141.39380	818.60425	223.57036	987.28894	839.00275	149.21483	974.10193	754.81323	229.22812	900.60193	802.01648	251.90407	823.49170	740.14044	217.47510	763.59802	754.17468	257.22504	732.98309	725.08728	222.12660	708.48871	719.47357	208.01294	671.50256	719.50311	199.95721	630.05286	751.69635	275.17050	656.15637	760.10254	253.94876	606.42566	777.65240	230.41513	576.82373	720.77759	-290.81818	1140.27710	764.32574	-301.87360	994.69025	794.40973	-227.01845	988.19446	679.87775	-275.91669	934.58624	683.43433	-308.79651	841.27887	631.65210	-248.53166	805.43561	620.78748	-295.76862	781.38239	597.62115	-253.34436	772.08881	582.02850	-234.54512	732.96204	575.31720	-229.33351	681.68713	579.99414	-302.90445	702.52551	574.10486	-287.58191	664.17743	579.13959	-252.00471	632.72437	894.68024	-26.44943	910.49908	700.46893	121.07849	968.06848	710.82886	-197.34991	953.63068	625.97168	166.23703	595.50830	524.23328	97.39387	527.98132	562.99860	134.27478	462.88815	548.55139	19.53207	462.49512	571.24182	85.27469	292.37787	660.41852	89.36446	82.73843	629.87457	2.23132	101.30399	710.52490	24.76144	59.30940	523.49744	83.38148	54.10507	565.18658	35.12543	80.53429	744.61267	-202.26135	574.96191	740.64874	-166.28647	438.39429	728.28339	-45.63986	426.09851	759.85425	-101.91946	245.73331	847.04840	-116.15334	63.20788	836.00049	-26.23713	83.39598	908.99060	-69.68998	42.28553	702.73383	-75.63739	38.00450	760.84283	-45.70861	62.27120																																																																																																																															
202	1.675	633.87122	-53.76828	1560.28210	536.50812	-43.73824	1457.81885	748.08331	-52.04050	1482.43945	570.75232	-28.37612	1318.29419	769.21887	-35.14986	1373.51526	697.60706	82.34755	1282.37549	666.50562	-131.54652	1287.17517	754.06250	154.08923	1280.70337	710.02997	-228.98569	1287.51013	826.12262	45.88974	1300.25916	811.68018	-135.33298	1297.12720	874.47552	25.35467	1219.47498	760.05505	207.75577	1141.25134	815.55579	222.88199	986.39459	835.27423	149.86424	973.57257	751.70752	229.01804	899.62146	797.95782	252.27284	822.46448	736.36548	217.91454	763.20789	752.17865	257.57626	732.92554	723.31665	222.12511	706.51892	715.87793	209.12323	671.07385	715.53625	200.31764	629.04559	748.54553	275.94388	655.21899	754.93048	253.66003	605.05414	774.39880	231.61913	575.99060	716.70264	-289.67609	1139.61584	760.53815	-301.02942	994.53107	791.41412	-226.57240	987.67596	675.62421	-276.59641	934.34882	679.52325	-308.95270	841.06897	627.82837	-247.83260	805.41547	617.39545	-295.97836	780.54321	593.82556	-253.73099	771.54279	578.50342	-234.77592	732.35577	572.03229	-228.18965	681.85242	576.54987	-303.48749	702.16180	570.89569	-288.05527	663.72644	575.32843	-251.62000	631.76282	889.87109	-25.47285	909.97809	694.68347	121.99146	967.85333	707.03851	-195.47443	953.49988	620.97137	165.78654	594.28442	519.87982	96.86047	528.13660	557.77625	133.84758	461.97742	544.26563	19.16936	462.49649	561.44446	84.34318	292.52606	644.72723	89.28400	81.16946	615.71051	3.82643	99.67752	695.21802	25.61070	55.41861	506.58899	83.02627	54.58232	548.93304	35.00487	80.01384	742.25977	-201.69727	574.88416	739.32318	-165.92462	438.87851	727.61542	-44.46059	425.58954	758.72632	-102.24609	245.32036	846.89056	-116.27825	63.39520	836.00049	-26.23713	83.39598	909.01855	-69.64141	42.33525	702.28961	-75.72536	38.21144	760.51611	-45.77382	62.87680																																																																																																																															
